<svg width="31" height="31" viewBox="0 0 31 31" fill="none" xmlns="http://www.w3.org/2000/svg">
<path d="M9.94726 26.9727C9.50762 27.1144 9.04863 27.1927 8.58423 27.2039C7.86719 27.2212 7.15533 27.0783 6.50051 26.7856C5.8457 26.4929 5.26443 26.0579 4.79907 25.5121C4.3337 24.9663 3.99597 24.3236 3.81048 23.6307L3.81046 23.6306L2.90939 20.2674L2.90932 20.2672C2.86371 20.0973 2.85203 19.92 2.87492 19.7456C2.89782 19.5712 2.95485 19.403 3.04276 19.2507L2.58356 18.9857L3.04276 19.2507C3.13068 19.0983 3.24774 18.9647 3.38728 18.8576C3.52679 18.7505 3.68604 18.6719 3.85592 18.6264C3.85594 18.6264 3.85597 18.6264 3.856 18.6263L8.22049 17.457V22.3817C8.22049 22.3817 8.22049 22.3817 8.22049 22.3818C8.22038 23.3588 8.42588 24.325 8.82362 25.2175C9.10864 25.857 9.48783 26.4485 9.94726 26.9727ZM3.80479 8.85892L3.42599 8.48012L3.80479 8.85892C4.10327 8.56045 4.45761 8.32369 4.84758 8.16215C5.23756 8.00062 5.65553 7.91748 6.07764 7.91748C6.49974 7.91748 6.91772 8.00062 7.30769 8.16215C7.69767 8.32369 8.05201 8.56045 8.35048 8.85892C8.64895 9.1574 8.88572 9.51174 9.04725 9.90171C9.20878 10.2917 9.29192 10.7097 9.29192 11.1318C9.29192 11.9842 8.95328 12.8018 8.35048 13.4046C7.74768 14.0074 6.93012 14.3461 6.07764 14.3461C5.22516 14.3461 4.40759 14.0074 3.80479 13.4046C3.202 12.8018 2.86335 11.9842 2.86335 11.1318C2.86335 10.7097 2.94649 10.2917 3.10802 9.90171C3.26956 9.51174 3.50632 9.1574 3.80479 8.85892ZM12.5331 5.80154C13.2364 5.09828 14.1902 4.70319 15.1848 4.70319C16.1793 4.70319 17.1332 5.09828 17.8364 5.80154C18.5397 6.50481 18.9348 7.45863 18.9348 8.45319C18.9348 9.44776 18.5397 10.4016 17.8364 11.1048C17.1332 11.8081 16.1793 12.2032 15.1848 12.2032C14.1902 12.2032 13.2364 11.8081 12.5331 11.1048C11.8299 10.4016 11.4348 9.44776 11.4348 8.45319C11.4348 7.45863 11.8299 6.50481 12.5331 5.80154ZM23.0619 8.16215C23.4518 8.00062 23.8698 7.91748 24.2919 7.91748C25.1444 7.91748 25.962 8.25613 26.5648 8.85892C27.1676 9.46172 27.5062 10.2793 27.5062 11.1318C27.5062 11.9842 27.1676 12.8018 26.5648 13.4046C25.962 14.0074 25.1444 14.3461 24.2919 14.3461C23.8698 14.3461 23.4518 14.2629 23.0619 14.1014C22.6719 13.9398 22.3176 13.7031 22.0191 13.4046C21.7206 13.1061 21.4838 12.7518 21.3223 12.3618C21.1608 11.9718 21.0776 11.5539 21.0776 11.1318C21.0776 10.7097 21.1608 10.2917 21.3223 9.90171C21.4838 9.51174 21.7206 9.1574 22.0191 8.85892C22.3176 8.56045 22.6719 8.32369 23.0619 8.16215ZM10.7556 15.8097C11.0068 15.5586 11.3474 15.4175 11.7026 15.4175H18.6669C19.0221 15.4175 19.3628 15.5586 19.6139 15.8097C19.8651 16.0609 20.0062 16.4016 20.0062 16.7568V22.3818C20.0062 23.6605 19.4982 24.8868 18.594 25.791C17.6899 26.6952 16.4635 27.2032 15.1848 27.2032C13.9061 27.2032 12.6797 26.6952 11.7755 25.791C10.8713 24.8868 10.3634 23.6605 10.3634 22.3818V16.7568C10.3634 16.4016 10.5045 16.0609 10.7556 15.8097ZM22.5344 27.1635C21.907 27.2461 21.2694 27.2043 20.6582 27.0407C20.5788 27.0191 20.5007 26.9959 20.4237 26.971C20.8827 26.447 21.2615 25.8559 21.5462 25.2167C21.9438 24.3245 22.1492 23.3586 22.1491 22.3818C22.1491 22.3817 22.1491 22.3817 22.1491 22.3817V17.4569L26.5167 18.6263C26.8597 18.7183 27.1521 18.9428 27.3296 19.2503C27.5071 19.5579 27.5553 19.9234 27.4634 20.2664L26.5623 23.6307C26.3985 24.2423 26.1158 24.8157 25.7303 25.3181C25.3449 25.8205 24.8643 26.242 24.3159 26.5587C23.7675 26.8753 23.1622 27.0808 22.5344 27.1635Z" fill="#3593F8" stroke="url(#paint0_linear_868_1304)" stroke-width="1.07143"/>
<defs>
<linearGradient id="paint0_linear_868_1304" x1="28.1376" y1="0.531066" x2="5.41872" y2="24.7619" gradientUnits="userSpaceOnUse">
<stop stop-color="#96C8FF"/>
<stop offset="1" stop-color="#3593F8"/>
</linearGradient>
</defs>
</svg>
