<svg width="197" height="123" viewBox="0 0 197 123" fill="none" xmlns="http://www.w3.org/2000/svg">
<g id="Arrow 8" filter="url(#filter0_ddddd_868_1295)">
<path d="M144.082 31.2519L143.495 30.4421L144.082 31.2519ZM180.701 5.59496C180.788 5.04959 180.416 4.53685 179.871 4.44972L170.984 3.02988C170.438 2.94275 169.926 3.31423 169.838 3.8596C169.751 4.40497 170.123 4.91771 170.668 5.00484L178.568 6.26692L177.306 14.1667C177.219 14.7121 177.59 15.2249 178.136 15.312C178.681 15.3991 179.194 15.0276 179.281 14.4823L180.701 5.59496ZM144.669 32.0617L180.3 6.24701L179.127 4.6274L143.495 30.4421L144.669 32.0617ZM16.1902 11.5359C46.0005 52.6823 103.522 61.872 144.669 32.0617L143.495 30.4421C103.243 59.6044 46.972 50.6144 17.8098 10.3625L16.1902 11.5359Z" fill="url(#paint0_linear_868_1295)"/>
</g>
<defs>
<filter id="filter0_ddddd_868_1295" x="0.190186" y="0.0175781" width="196.523" height="122.549" filterUnits="userSpaceOnUse" color-interpolation-filters="sRGB">
<feFlood flood-opacity="0" result="BackgroundImageFix"/>
<feColorMatrix in="SourceAlpha" type="matrix" values="0 0 0 0 0 0 0 0 0 0 0 0 0 0 0 0 0 0 127 0" result="hardAlpha"/>
<feOffset dy="2"/>
<feGaussianBlur stdDeviation="2.5"/>
<feColorMatrix type="matrix" values="0 0 0 0 0 0 0 0 0 0 0 0 0 0 0 0 0 0 0.39 0"/>
<feBlend mode="normal" in2="BackgroundImageFix" result="effect1_dropShadow_868_1295"/>
<feColorMatrix in="SourceAlpha" type="matrix" values="0 0 0 0 0 0 0 0 0 0 0 0 0 0 0 0 0 0 127 0" result="hardAlpha"/>
<feOffset dy="9"/>
<feGaussianBlur stdDeviation="4.5"/>
<feColorMatrix type="matrix" values="0 0 0 0 0 0 0 0 0 0 0 0 0 0 0 0 0 0 0.34 0"/>
<feBlend mode="normal" in2="effect1_dropShadow_868_1295" result="effect2_dropShadow_868_1295"/>
<feColorMatrix in="SourceAlpha" type="matrix" values="0 0 0 0 0 0 0 0 0 0 0 0 0 0 0 0 0 0 127 0" result="hardAlpha"/>
<feOffset dy="21"/>
<feGaussianBlur stdDeviation="6"/>
<feColorMatrix type="matrix" values="0 0 0 0 0 0 0 0 0 0 0 0 0 0 0 0 0 0 0.2 0"/>
<feBlend mode="normal" in2="effect2_dropShadow_868_1295" result="effect3_dropShadow_868_1295"/>
<feColorMatrix in="SourceAlpha" type="matrix" values="0 0 0 0 0 0 0 0 0 0 0 0 0 0 0 0 0 0 127 0" result="hardAlpha"/>
<feOffset dy="37"/>
<feGaussianBlur stdDeviation="7.5"/>
<feColorMatrix type="matrix" values="0 0 0 0 0 0 0 0 0 0 0 0 0 0 0 0 0 0 0.06 0"/>
<feBlend mode="normal" in2="effect3_dropShadow_868_1295" result="effect4_dropShadow_868_1295"/>
<feColorMatrix in="SourceAlpha" type="matrix" values="0 0 0 0 0 0 0 0 0 0 0 0 0 0 0 0 0 0 127 0" result="hardAlpha"/>
<feOffset dy="57"/>
<feGaussianBlur stdDeviation="8"/>
<feColorMatrix type="matrix" values="0 0 0 0 0 0 0 0 0 0 0 0 0 0 0 0 0 0 0.01 0"/>
<feBlend mode="normal" in2="effect4_dropShadow_868_1295" result="effect5_dropShadow_868_1295"/>
<feBlend mode="normal" in="SourceGraphic" in2="effect5_dropShadow_868_1295" result="shape"/>
</filter>
<linearGradient id="paint0_linear_868_1295" x1="56" y1="45" x2="179" y2="17" gradientUnits="userSpaceOnUse">
<stop stop-color="white"/>
<stop offset="1" stop-color="#2381DA"/>
</linearGradient>
</defs>
</svg>
