<svg width="37" height="37" viewBox="0 0 37 37" fill="none" xmlns="http://www.w3.org/2000/svg">
<g clip-path="url(#clip0_868_1306)">
<path d="M19.6031 4.519L19.6031 4.51896L24.4271 12.2389L18.6141 15.8713L13.79 8.15119L13.7893 8.15004L13.7903 8.14945L19.6031 4.519ZM9.05911 14.0251L12.2328 14.7578L13.0541 16.0712L13.0283 16.0653C12.4054 15.9215 11.7508 16.031 11.2086 16.3698C10.6663 16.7086 10.2809 17.249 10.1371 17.8719C9.99329 18.4949 10.1028 19.1495 10.4416 19.6917C10.7804 20.2339 11.3208 20.6193 11.9437 20.7631L22.112 23.1107C22.735 23.2545 23.3896 23.145 23.9318 22.8061C24.474 22.4673 24.8594 21.927 25.0032 21.304C25.147 20.6811 25.0375 20.0265 24.6987 19.4843C24.4156 19.0313 23.9919 18.6877 23.4969 18.5031L24.8365 17.6654L27.6547 18.3161C28.2085 18.4439 28.6888 18.7865 28.99 19.2685C29.2911 19.7504 29.3885 20.3323 29.2606 20.886L28.2402 25.3062L5.46915 20.0491L6.48962 15.6289C6.61746 15.0752 6.96005 14.5949 7.44201 14.2937C7.92243 13.9935 8.50357 13.8969 9.05911 14.0251ZM3.43494 28.8602L4.38456 24.747L27.1577 30.0045L26.2081 34.1178L3.43494 28.8602Z" fill="#3593F8" stroke="url(#paint0_linear_868_1306)" stroke-width="2.14286"/>
</g>
<defs>
<linearGradient id="paint0_linear_868_1306" x1="34.7599" y1="2.24866" x2="2.04463" y2="19.0764" gradientUnits="userSpaceOnUse">
<stop stop-color="#96C8FF"/>
<stop offset="1" stop-color="#3593F8"/>
</linearGradient>
<clipPath id="clip0_868_1306">
<rect width="30" height="30" fill="white" transform="translate(7.27368 0.116211) rotate(13)"/>
</clipPath>
</defs>
</svg>
