<svg width="33" height="33" viewBox="0 0 33 33" fill="none" xmlns="http://www.w3.org/2000/svg">
<g clip-path="url(#clip0_868_1308)">
<path d="M11.0331 24.2843C10.9514 23.3787 11.0678 22.4602 11.3814 21.5944C11.8602 20.2725 12.7706 19.1507 13.9656 18.4102L15.9699 17.1681L13.8171 16.2064L6.30602 12.8507L6.30524 12.8504C5.89831 12.6689 5.54727 12.382 5.28845 12.0193C5.02974 11.6567 4.87259 11.2317 4.83323 10.788L4.58011 7.89479C4.48993 6.86408 5.25385 5.95368 6.28455 5.86351L11.8881 5.37326L11.9971 6.6185L12.7318 15.0164L12.7959 15.7488L13.4672 16.0487L16.0788 17.2156L16.7129 17.4989C15.0618 17.6435 13.5357 18.438 12.4703 19.7076C11.4048 20.9774 10.8874 22.6185 11.0318 24.2698C11.0323 24.2746 11.0327 24.2795 11.0331 24.2843ZM11.0331 24.2843C11.0766 24.7682 11.1759 25.2413 11.3266 25.6951C11.6885 26.7846 12.3468 27.7629 13.2406 28.5128C13.4278 28.6699 13.623 28.815 13.8251 28.9479C14.9944 29.7165 16.3949 30.0745 17.8028 29.9513C19.2107 29.8281 20.5277 29.2324 21.5457 28.2724C21.7217 28.1065 21.8888 27.9297 22.0458 27.7425C22.7958 26.8487 23.2743 25.7709 23.4415 24.6351C23.5111 24.1621 23.5267 23.679 23.4855 23.1949M11.0331 24.2843C11.0761 24.7613 11.1741 25.2347 11.3271 25.6949C11.6937 26.7974 12.3587 27.7711 13.2417 28.5116C13.4271 28.6671 13.6222 28.8124 13.8261 28.9464C15.0011 29.7183 16.4021 30.0715 17.8026 29.949C19.2031 29.8265 20.5214 29.2353 21.5445 28.2711C21.7221 28.1037 21.889 27.9268 22.0446 27.7415C22.7856 26.8589 23.2713 25.7845 23.4409 24.6351C23.5117 24.1553 23.526 23.6721 23.4855 23.1949M23.4855 23.1949C23.4851 23.19 23.4847 23.1852 23.4843 23.1803C23.3398 21.5291 22.5453 20.0028 21.2755 18.9373C20.0058 17.8719 18.3649 17.3545 16.7137 17.4988L17.289 17.1097L19.6584 15.5071L20.2674 15.0952L20.2033 14.3628L19.4686 5.96483L19.3596 4.71959L24.9632 4.22934C25.9939 4.13916 26.9043 4.90308 26.9945 5.93378L27.2477 8.82773L27.2477 8.82778C27.2865 9.27177 27.206 9.71807 27.0144 10.1205L28.143 10.6578L27.0144 10.1205C26.8229 10.5227 26.5274 10.8664 26.1585 11.1161C26.1585 11.1161 26.1585 11.1161 26.1585 11.1162C26.1583 11.1163 26.1582 11.1164 26.158 11.1165L19.3416 15.7228L17.387 17.0436L19.5775 17.9192C20.883 18.441 21.9744 19.3876 22.6754 20.6063C23.1346 21.4045 23.4087 22.2888 23.4855 23.1949Z" fill="#3593F8" stroke="url(#paint0_linear_868_1308)" stroke-width="2.5"/>
</g>
<defs>
<linearGradient id="paint0_linear_868_1308" x1="27.6877" y1="-1.52175" x2="3.4585" y2="24.1288" gradientUnits="userSpaceOnUse">
<stop stop-color="#96C8FF"/>
<stop offset="1" stop-color="#3593F8"/>
</linearGradient>
<clipPath id="clip0_868_1308">
<rect width="30" height="30" fill="white" transform="translate(0.354004 2.61816) rotate(-5)"/>
</clipPath>
</defs>
</svg>
